<mxfile host="app.diagrams.net" modified="2023-12-02T08:35:21.258Z" agent="Mozilla/5.0 (Windows NT 10.0; Win64; x64) AppleWebKit/537.36 (KHTML, like Gecko) Chrome/119.0.0.0 Safari/537.36 Edg/119.0.0.0" version="22.1.5" etag="c4D1a4itUiB1aesgZShQ" type="github">
  <diagram name="第 1 页" id="E-cUP8Ie-hkv5i3JPMAU">
    <mxGraphModel>
      <root>
        <mxCell id="0" />
        <mxCell id="1" parent="0" />
      </root>
    </mxGraphModel>
  </diagram>
</mxfile>
